<?xml version="1.0" encoding="UTF-8"?>
<svg viewBox="0 0 161.09375 687.68756" xmlns="http://www.w3.org/2000/svg">
 <g transform="translate(243.4 -497.09)">
  <path d="m-162.9 497.09c-9.0515 0-11.778 2.7824-15.594 5.125 5.8269 3.2376 9.0984 7.7298 9.1562 14.719 0.0738 8.8956-0.95705 18.296-1.9062 24.25 2.2954 1.5944 3.2057 4.397-0.5625 5.2812-0.0277 1.9559 0.2445 3.8841-1.0625 6 2.0587 1.9523 3.2418 3.3313 3.2812 3.9375-3.4076 10.396-2.2896 22.135-2.8438 31.969-0.5007 8.8837-2.1416 17.696-2.1562 26.594-0.00526 3.2203 0.28169 6.423 0.65625 9.625-24.567 0.25449-48.622 1.6822-69.469 8.75l18.438 8.2188c11.511-11.249 32.1-11.756 51.688-11.656 0.27126 2.0846 0.54661 4.1622 0.75 6.25-1.3577 4.5825-2.9103 8.9104-4.7188 12.844l3.2812 484.38c0.1815 26.777 6.2623 38.274 11.125 51.406 4.8627-13.132 10.912-24.629 11.094-51.406l3.2812-484.38c-1.8134-3.9441-3.3597-8.2786-4.7188-12.875 0.2029-2.0763 0.47987-4.1457 0.75-6.2188 19.606-0.10145 40.196 0.39554 51.719 11.656l18.406-8.2188c-20.856-7.0707-44.891-8.4964-69.469-8.75 0.37507-3.2011 0.66151-6.4057 0.65625-9.625-0.0147-8.8978-1.9754-17.698-2.1562-26.594-0.2369-11.657-0.48905-21.582-2.8438-31.969l-0.09375-0.03125c0.07229-0.6196 1.2527-1.9827 3.2812-3.9062-1.3071-2.1159-1.0348-4.0441-1.0625-6-3.7682-0.8843-2.8578-3.6868-0.5625-5.2812-0.9492-5.9538-1.98-15.354-1.9062-24.25 0.0579-6.9889 3.3292-11.481 9.1562-14.719-3.8158-2.3426-6.5422-5.125-15.594-5.125z"/>
 </g>
</svg>
